<svg xmlns="http://www.w3.org/2000/svg" viewBox="0 0 1033 174.99"><defs><style>.cls-1{fill:#fff;}.cls-2{fill:#59bc5b;}</style></defs><title>logo_lg</title><g id="レイヤー_2" data-name="レイヤー 2"><g id="レイヤー_1-2" data-name="レイヤー 1"><polygon class="cls-1" points="84.75 141.18 92.15 133.07 87.12 130 84.75 141.18"/><path class="cls-1" d="M82,118.13a5,5,0,0,1,1.31-.35l64.17-82.51L66.07,109l9.57,29.54,3.6-17A4.76,4.76,0,0,1,82,118.13Z"/><polygon class="cls-1" points="155.84 17.89 15.22 75.09 61.48 103.29 155.84 17.89"/><polygon class="cls-1" points="90.2 120.79 158.16 162.21 169.75 18.5 90.2 120.79"/><path class="cls-2" d="M178.41.92a4.71,4.71,0,0,0-4.58-.57L3,69.86a4.74,4.74,0,0,0-.68,8.43L57,111.64l2.23,6.89,12.87,39.75a4.73,4.73,0,0,0,8.17,1.53l.17.16,19.95-21.88L133,158l26.75,16.31a4.75,4.75,0,0,0,2.47.69,4.75,4.75,0,0,0,4.72-4.35L180.33,5.11A4.72,4.72,0,0,0,178.41.92ZM15.22,75.09l140.62-57.2-94.36,85.4Zm64,46.41-3.6,17L66.07,109l81.41-73.69L83.31,117.78a5,5,0,0,0-1.31.35A4.76,4.76,0,0,0,79.24,121.5Zm5.51,19.68L87.12,130l5,3.07Zm73.41,21-68-41.42L169.75,18.5Z"/><path class="cls-2" d="M267,146.3H243.28V54.11h-30.4V34.36h84.53V54.11H267Z"/><path class="cls-2" d="M367.16,146.3l-4.51-11.64H362q-5.89,7.43-12.13,10.3t-16.27,2.87q-12.33,0-19.41-7t-7.09-20.06q0-13.64,9.54-20.1t28.75-7.16L360.27,93V89.26q0-13-13.32-13-10.26,0-24.12,6.2L315.1,66.67a69.52,69.52,0,0,1,32.77-7.74q17.22,0,26.41,7.51t9.19,22.82v57Zm-6.89-39.66-9,.3q-10.19.32-15.16,3.68c-3.32,2.25-5,5.66-5,10.26q0,9.87,11.33,9.88,8.11,0,13-4.67t4.86-12.41Z"/><path class="cls-2" d="M455.14,59.09q15.17,0,23.74,11.83t8.57,32.42q0,21.21-8.84,32.85t-24.08,11.64q-15.09,0-23.66-11h-1.61l-3.9,9.42H407.52V27.16h23.35V54.88q0,5.28-.92,16.92h.92Q439.06,59.1,455.14,59.09Zm-7.5,18.68q-8.65,0-12.64,5.32t-4.13,17.57v2.53q0,13.78,4.1,19.76t13,6q7.2,0,11.45-6.62T463.64,103q0-12.63-4.29-19A13.44,13.44,0,0,0,447.64,77.77Z"/><path class="cls-2" d="M505.75,38.57q0-11.41,12.71-11.41t12.71,11.41Q531.17,44,528,47t-9.53,3Q505.76,50.05,505.75,38.57ZM530.1,146.3H506.75V60.7H530.1Z"/><path class="cls-2" d="M631.25,146.3H607.89v-50q0-9.27-3.1-13.9T595,77.77q-9,0-13,6.59T578,106V146.3H554.6V60.7h17.84l3.14,11h1.3a23.76,23.76,0,0,1,10-9.23,32.31,32.31,0,0,1,14.93-3.33q19.22,0,26,12.56h2.07A23.16,23.16,0,0,1,640,62.38a33.93,33.93,0,0,1,15.13-3.29q14.54,0,22,7.46t7.46,23.93V146.3H661.18v-50q0-9.27-3.1-13.9t-9.76-4.63q-8.58,0-12.82,6.13t-4.25,19.44Z"/><path class="cls-2" d="M747.32,147.83q-20.67,0-32.31-11.41t-11.64-32.31q0-21.51,10.76-33.27t29.75-11.75q18.15,0,28.25,10.34T782.24,98v11.34H727q.39,9.95,5.9,15.54t15.47,5.59A64.29,64.29,0,0,0,763,128.84a72.93,72.93,0,0,0,14.39-5.13v18.07a55,55,0,0,1-13.09,4.56A82.92,82.92,0,0,1,747.32,147.83ZM744,75.7q-7.42,0-11.64,4.71t-4.82,13.36h32.77q-.15-8.64-4.52-13.36T744,75.7Z"/><path class="cls-2" d="M877.87,146.3H854.52v-50q0-9.27-3.1-13.9t-9.76-4.63q-9,0-13,6.59T824.58,106V146.3H801.23V60.7h17.84l3.14,11h1.3a23.74,23.74,0,0,1,10-9.23,32.34,32.34,0,0,1,14.93-3.33q19.23,0,26,12.56h2.06a23.13,23.13,0,0,1,10.15-9.27,33.92,33.92,0,0,1,15.12-3.29q14.55,0,22,7.46t7.47,23.93V146.3H907.81v-50q0-9.27-3.1-13.9T895,77.77q-8.58,0-12.83,6.13t-4.25,19.44Z"/><path class="cls-2" d="M1033,103.34q0,20.91-11,32.7t-30.7,11.79a43,43,0,0,1-21.75-5.4,36,36,0,0,1-14.47-15.5q-5.06-10.11-5-23.59,0-21,11-32.61t30.78-11.64a43.18,43.18,0,0,1,21.74,5.36A35.76,35.76,0,0,1,1028,79.84Q1033,89.88,1033,103.34Zm-59.19,0q0,12.72,4.18,19.22t13.59,6.51q9.33,0,13.43-6.47t4.1-19.26q0-12.7-4.14-19.06t-13.55-6.36q-9.34,0-13.47,6.32T973.81,103.34Z"/></g></g></svg>