<?xml version="1.0" encoding="utf-8"?>
<!-- Generator: Adobe Illustrator 22.0.1, SVG Export Plug-In . SVG Version: 6.00 Build 0)  -->
<svg version="1.1" id="_x31_0" xmlns="http://www.w3.org/2000/svg" xmlns:xlink="http://www.w3.org/1999/xlink" x="0px" y="0px"
	 viewBox="0 0 512 512" style="enable-background:new 0 0 512 512;" xml:space="preserve">
<style type="text/css">
	.st0{fill:#5CB85C;}
</style>
<g>
	<path class="st0" d="M256,0C114.8,0,0,114.9,0,256c0,67.3,25.9,130.9,73,179c48.5,49.7,113.4,77,183,77c69.4,0,134.4-27.3,182.9-77
		C486,386.9,512,323.3,512,256C512,114.9,397.1,0,256,0z M103.9,410.5c42.4-26.7,97.2-56,101-56.9h2.4v-46c-5.5-2.9-9.3-10-11.8-17
		c-2.5-6.7-3.7-13.1-4-15.8c0-0.1,0-0.2,0-0.2c0,0,0,0,0,0c0,0,0-0.1,0-0.2c-17.5,5.8-20.1-27-20.9-35.3c-0.8-7.5,2.6-12.8,4.9-14.9
		c-0.6-1.2-1.3-3-1.9-5c0-0.1,0-0.1,0-0.1c-6.7-30.4-2.8-39.3,10.6-63.5c13.6-24.6,47.6-48.2,67.4-47.9c1.5,0,3,0,4.5,0.2
		c23.8,1.6,36.7,13.4,46.9,31.5c6.2,0,16.9,8.2,25,16.2c3.5,3.4,6.6,7,8.5,9.8c5.6,8,6.7,20.9,5.8,32.7c-0.6,8.1-2.1,15.8-3.7,21
		v0.1c-0.6,2.1-1.3,3.8-1.9,5c2.4,2.1,5.7,7.4,5,14.9c-0.9,8.3-3.4,41.1-20.9,35.3c0,0.2,0,0.3-0.1,0.5c-0.8,5.5-3.7,25.8-15.8,32.7
		v45.7v0.1l0,0v0.2h2.3c3.6,0.8,51.4,26.2,92.1,51.3c3,1.9,6,3.7,8.9,5.6c-40.7,40.3-94.5,62.4-152.1,62.4
		c-52.4,0-101.7-18.4-140.9-52.1C111.3,417.5,107.5,414.1,103.9,410.5z"/>
</g>
</svg>
